HIERARCHY
ROOT Hips
{
	OFFSET 0.000000 0.000000 0.000000
	CHANNELS 6 Xposition Yposition Zposition Zrotation Yrotation Xrotation 
	JOINT LowerBack
	{
		OFFSET 0.000000 0.000000 0.000000
		CHANNELS 3 Zrotation Yrotation Xrotation
		JOINT Spine
		{
			OFFSET 0.028270 2.035590 -0.193380
			CHANNELS 3 Zrotation Yrotation Xrotation
			JOINT Spine1
			{
				OFFSET 0.056720 2.048850 -0.042750
				CHANNELS 3 Zrotation Yrotation Xrotation
				JOINT Neck
				{
					OFFSET 0.000000 0.000000 0.000000
					CHANNELS 3 Zrotation Yrotation Xrotation
					JOINT Neck1
					{
						OFFSET -0.054170 1.746240 0.172020
						CHANNELS 3 Zrotation Yrotation Xrotation
						JOINT Head
						{
							OFFSET 0.104070 1.761360 -0.123970
							CHANNELS 3 Zrotation Yrotation Xrotation
							End Site
							{
								OFFSET 0.000000 0.000000 0.000000
							}
						}
					}
				}
				JOINT LeftShoulder
				{
					OFFSET 0.000000 0.000000 0.000000
					CHANNELS 3 Zrotation Yrotation Xrotation
					JOINT LeftArm
					{
						OFFSET 3.362410 1.200890 -0.311210
						CHANNELS 3 Zrotation Yrotation Xrotation
						JOINT LeftForeArm
						{
							OFFSET 4.983000 -0.000000 -0.000000
							CHANNELS 3 Zrotation Yrotation Xrotation
							JOINT LeftHand
							{
								OFFSET 3.483560 -0.000000 -0.000000
								CHANNELS 3 Zrotation Yrotation Xrotation
								JOINT LeftFingerBase
								{
									OFFSET 0.000000 0.000000 0.000000
									CHANNELS 3 Zrotation Yrotation Xrotation
									JOINT LeftHandIndex1
									{
										OFFSET 0.715260 -0.000000 -0.000000
										CHANNELS 3 Zrotation Yrotation Xrotation
										End Site
										{
											OFFSET 0.000000 0.000000 0.000000
										}
									}
								}
								JOINT LThumb
								{
									OFFSET 0.000000 0.000000 0.000000
									CHANNELS 3 Zrotation Yrotation Xrotation
									End Site
									{
										OFFSET 0.000000 0.000000 0.000000
									}
								}
							}
						}
					}
				}
				JOINT RightShoulder
				{
					OFFSET 0.000000 0.000000 0.000000
					CHANNELS 3 Zrotation Yrotation Xrotation
					JOINT RightArm
					{
						OFFSET -3.136600 1.374050 -0.404650
						CHANNELS 3 Zrotation Yrotation Xrotation
						JOINT RightForeArm
						{
							OFFSET -5.241900 -0.000000 -0.000000
							CHANNELS 3 Zrotation Yrotation Xrotation
							JOINT RightHand
							{
								OFFSET -3.444170 -0.000000 -0.000000
								CHANNELS 3 Zrotation Yrotation Xrotation
								JOINT RightFingerBase
								{
									OFFSET 0.000000 0.000000 0.000000
									CHANNELS 3 Zrotation Yrotation Xrotation
									JOINT RightHandIndex1
									{
										OFFSET -0.622530 -0.000000 -0.000000
										CHANNELS 3 Zrotation Yrotation Xrotation
										End Site
										{
											OFFSET 0.000000 0.000000 0.000000
										}
									}
								}
								JOINT RThumb
								{
									OFFSET 0.000000 0.000000 0.000000
									CHANNELS 3 Zrotation Yrotation Xrotation
									End Site
									{
										OFFSET 0.000000 0.000000 0.000000
									}
								}
							}
						}
					}
				}
			}
		}
	}
}
}
MOTION
Frames: 17
Frame Time: 0.008333
5.334510 16.869981 4.169770 -146.607810 -87.450363 159.657770 -4.678653 -1.665119 -6.907485 -1.731061 -1.487235 -4.420487 -6.615755 -1.464854 -1.520083 11.470306 -8.544129 -6.904069 -3.048092 -0.233762 0.158729 0.000000 0.000000 0.000000 3.654131 7.493741 0.573174 -55.542403 -20.072366 -18.204281 -179.496616 -76.377125 179.946371 5.832910 18.717402 0.967982 -0.108227 0.221610 -0.000000 0.000000 0.000000 0.000000 0.000000 0.000000 0.000000 9.652287 -2.007302 -0.447327 66.817989 22.725701 7.389772 0.008014 89.050793 0.016351 2.480982 4.998796 0.126712 -0.107431 -0.536743 0.000000 0.000000 0.000000 0.000000 0.000000 0.000000 0.000000 
5.253433 16.927674 4.154574 -145.775107 -87.425718 158.784618 -4.570917 -1.651634 -7.058324 -1.733225 -1.488897 -4.455882 -6.682428 -1.461552 -1.569066 11.330982 -8.420017 -6.774887 -3.061428 -0.236419 0.196820 0.000000 0.000000 0.000000 4.019366 7.234636 0.566478 -54.401586 -21.075957 -17.920767 -179.522454 -76.540249 179.947735 5.669155 18.602925 0.934060 -0.103401 0.231474 -0.000000 0.000000 0.000000 0.000000 0.000000 0.000000 0.000000 9.554257 -1.921126 -0.474633 66.688244 23.251341 7.061116 0.008099 89.295185 0.015640 2.325119 5.049526 0.120517 -0.109754 -0.543808 0.000000 0.000000 0.000000 0.000000 0.000000 0.000000 0.000000 
5.172970 16.985473 4.138448 -145.063737 -87.391266 158.044917 -4.451267 -1.618670 -7.230046 -1.734661 -1.473805 -4.494627 -6.752299 -1.441517 -1.612649 11.186462 -8.294973 -6.653220 -3.070730 -0.238710 0.232962 0.000000 0.000000 0.000000 4.334730 7.030090 0.555898 -53.191747 -22.172398 -17.638416 -179.548911 -76.708896 179.948612 5.544028 18.404019 0.902546 -0.099592 0.243386 -0.000000 0.000000 0.000000 0.000000 0.000000 0.000000 0.000000 9.429027 -1.825450 -0.506120 66.536187 23.721247 6.674606 0.007039 89.607107 0.013780 2.163992 5.092656 0.113724 -0.112249 -0.551069 0.000000 0.000000 0.000000 0.000000 0.000000 0.000000 0.000000 
5.093141 17.043003 4.121204 -144.522008 -87.353715 157.474395 -4.331134 -1.569841 -7.408676 -1.737101 -1.444053 -4.534662 -6.823169 -1.406994 -1.654244 11.042470 -8.171621 -6.536413 -3.076707 -0.240704 0.267715 0.000000 0.000000 0.000000 4.617826 6.861684 0.540333 -51.937564 -23.334356 -17.377482 -179.576827 -76.877922 179.949294 5.436332 18.094274 0.868737 -0.096034 0.257952 -0.000000 0.000000 0.000000 0.000000 0.000000 0.000000 0.000000 9.286423 -1.725863 -0.539111 66.353656 24.145870 6.240723 0.007040 89.978330 0.012050 1.986407 5.145017 0.106233 -0.114609 -0.558797 0.000000 0.000000 0.000000 0.000000 0.000000 0.000000 0.000000 
5.013648 17.099559 4.102959 -143.803753 -87.317902 156.737043 -4.200480 -1.509371 -7.605446 -1.738492 -1.405119 -4.577157 -6.895594 -1.363166 -1.689866 10.900805 -8.046079 -6.426919 -3.078767 -0.242331 0.300502 0.000000 0.000000 0.000000 4.854500 6.748135 0.521842 -50.631408 -24.582495 -17.137155 -179.605489 -77.054710 179.949689 5.351882 17.731148 0.836531 -0.092952 0.274024 -0.000000 0.000000 0.000000 0.000000 0.000000 0.000000 0.000000 9.125720 -1.620633 -0.576983 66.136788 24.523052 5.764648 -179.991663 89.585431 -179.989958 1.784027 5.212547 0.097546 -0.116680 -0.567053 0.000000 0.000000 0.000000 0.000000 0.000000 0.000000 0.000000 
4.934349 17.154748 4.083335 -142.949727 -87.297201 155.869771 -4.073428 -1.443227 -7.815873 -1.741109 -1.361450 -4.620902 -6.968691 -1.314582 -1.719139 10.766333 -7.919350 -6.323298 -3.077215 -0.243621 0.331680 0.000000 0.000000 0.000000 5.052367 6.685882 0.500362 -49.281236 -25.907878 -16.927835 -179.635265 -77.239489 179.949951 5.280325 17.340063 0.805626 -0.089990 0.291030 -0.000000 0.000000 0.000000 0.000000 0.000000 0.000000 0.000000 8.954825 -1.514640 -0.620145 65.884155 24.859585 5.255581 -179.988125 89.090003 -179.992330 1.549662 5.304539 0.087262 -0.118255 -0.575942 0.000000 0.000000 0.000000 0.000000 0.000000 0.000000 0.000000 
4.855317 17.208295 4.062175 -141.693825 -87.292011 154.595740 -3.947179 -1.374342 -8.031296 -1.743985 -1.315798 -4.664727 -7.040487 -1.263838 -1.744368 10.642304 -7.794496 -6.221544 -3.072738 -0.244678 0.362411 0.000000 0.000000 0.000000 5.230159 6.656759 0.473546 -47.916950 -27.278282 -16.762804 -179.667180 -77.431627 179.950287 5.211076 16.926826 0.774322 -0.086599 0.308787 -0.000000 0.000000 0.000000 0.000000 0.000000 0.000000 0.000000 8.781243 -1.413893 -0.667588 65.593402 25.163987 4.723052 -179.981671 88.547730 -179.995130 1.279303 5.430420 0.075081 -0.119149 -0.585537 0.000000 0.000000 0.000000 0.000000 0.000000 0.000000 0.000000 
4.776512 17.259873 4.039322 -139.773920 -87.303729 152.648264 -3.818670 -1.305893 -8.248434 -1.746080 -1.271363 -4.707780 -7.109962 -1.213922 -1.765134 10.530317 -7.673879 -6.119126 -3.065785 -0.245570 0.393489 0.000000 0.000000 0.000000 5.395852 6.655299 0.439545 -46.556402 -28.679751 -16.647041 -179.701849 -77.631422 179.950732 5.145960 16.520621 0.744515 -0.082665 0.326578 -0.000000 0.000000 0.000000 0.000000 0.000000 0.000000 0.000000 8.609795 -1.323848 -0.719970 65.264899 25.442552 4.174177 -179.971809 87.967294 -179.998378 0.973522 5.592751 0.060703 -0.119294 -0.595776 -0.000000 0.000000 0.000000 0.000000 0.000000 0.000000 0.000000 
4.697643 17.308935 4.014440 -137.068860 -87.343726 149.912993 -3.696926 -1.243402 -8.475323 -1.748485 -1.232888 -4.751015 -7.176182 -1.169572 -1.779579 10.430587 -7.558540 -6.014087 -3.056153 -0.246320 0.425628 0.000000 0.000000 0.000000 5.551908 6.679845 0.396942 -45.205388 -30.105514 -16.582588 -179.739928 -77.840489 179.951174 5.097281 16.165583 0.719906 -0.078421 0.343328 -0.000000 0.000000 0.000000 0.000000 0.000000 0.000000 0.000000 8.440656 -1.249422 -0.779383 64.906366 25.696813 3.614335 -179.957974 87.354174 179.997977 0.639630 5.786512 0.044024 -0.118780 -0.606479 -0.000000 0.000000 0.000000 0.000000 0.000000 0.000000 0.000000 
4.618858 17.355261 3.987467 -132.911124 -87.402080 145.713809 -3.565692 -1.189075 -8.704995 -1.747444 -1.203534 -4.793220 -7.237964 -1.133339 -1.789078 10.341778 -7.452035 -5.902007 -3.044553 -0.247043 0.460130 0.000000 0.000000 0.000000 5.709420 6.715977 0.342218 -43.891831 -31.535693 -16.572329 -179.782241 -78.055745 179.951578 5.071578 15.857621 0.700895 -0.073829 0.359048 -0.000000 0.000000 0.000000 0.000000 0.000000 0.000000 0.000000 8.275888 -1.197358 -0.845498 64.519141 25.933323 3.046980 -179.940139 86.719412 179.993998 0.286115 6.008480 0.025043 -0.117725 -0.617472 -0.000000 0.000000 0.000000 0.000000 0.000000 0.000000 0.000000 
4.540160 17.398486 3.958346 -126.374318 -87.472762 139.123387 -3.414270 -1.150696 -8.935904 -1.739653 -1.191397 -4.833593 -7.294490 -1.112631 -1.793777 10.262232 -7.356975 -5.779148 -3.031346 -0.247822 0.498071 0.000000 0.000000 0.000000 5.875428 6.751442 0.272848 -42.635874 -32.959776 -16.615104 -179.829347 -78.276653 179.951813 5.080572 15.595510 0.688883 -0.069086 0.373710 -0.000000 0.000000 0.000000 0.000000 0.000000 0.000000 0.000000 8.115761 -1.175797 -0.918981 64.106627 26.155184 2.472987 -179.918284 86.070501 179.989785 -0.075660 6.251400 0.004056 -0.116363 -0.628508 -0.000000 0.000000 0.000000 0.000000 0.000000 0.000000 0.000000 
4.461637 17.438192 3.926914 -115.833688 -87.551003 128.517061 -3.244387 -1.147940 -9.166636 -1.722779 -1.214525 -4.870531 -7.344255 -1.124814 -1.793525 10.190188 -7.276639 -5.641922 -3.016467 -0.248708 0.540363 0.000000 0.000000 0.000000 6.057218 6.769085 0.187210 -41.455376 -34.373331 -16.707543 -179.881666 -78.502133 179.951716 5.135525 15.369067 0.684474 -0.064442 0.387527 -0.000000 0.000000 0.000000 0.000000 0.000000 0.000000 0.000000 7.959114 -1.198671 -1.001220 63.672164 26.364225 1.890241 -179.892206 85.412875 179.985432 -0.434339 6.506745 -0.018344 -0.115034 -0.639318 -0.000000 0.000000 0.000000 0.000000 0.000000 0.000000 0.000000 
4.383286 17.474036 3.893113 -98.564669 -87.620974 111.173535 -3.109804 -1.222155 -9.389883 -1.701909 -1.306296 -4.899837 -7.384209 -1.203987 -1.787635 10.125393 -7.211973 -5.486094 -2.999531 -0.249738 0.587818 0.000000 0.000000 0.000000 6.257251 6.745820 0.086983 -40.355434 -35.784562 -16.845682 -179.939242 -78.736183 179.951139 5.242375 15.159526 0.687569 -0.060173 0.400935 -0.000000 0.000000 0.000000 0.000000 0.000000 0.000000 0.000000 7.806788 -1.286915 -1.094316 63.219315 26.558859 1.292069 -179.861283 84.748722 179.981009 -0.779999 6.766187 -0.041561 -0.114211 -0.649631 -0.000000 0.000000 0.000000 0.000000 0.000000 0.000000 0.000000 
4.305196 17.505618 3.856781 -72.684631 -87.640301 85.213392 -3.221624 -1.416229 -9.601212 -1.710821 -1.487478 -4.917954 -7.404511 -1.378311 -1.775485 10.070268 -7.163968 -5.308253 -2.979315 -0.250888 0.640918 0.000000 0.000000 0.000000 6.480782 6.661150 -0.027106 -39.328033 -37.201455 -17.029205 179.996355 -78.982895 179.950014 5.400871 14.946359 0.696664 -0.056322 0.414307 -0.000000 0.000000 0.000000 0.000000 0.000000 0.000000 0.000000 7.661379 -1.459947 -1.199073 62.756429 26.741071 0.672747 -179.824141 84.079989 179.976577 -1.105906 7.022377 -0.065097 -0.114258 -0.659393 -0.000000 0.000000 0.000000 0.000000 0.000000 0.000000 0.000000 
4.227469 17.532637 3.817854 -43.601357 -87.642070 56.035934 -3.845722 -1.644680 -9.812246 -1.806022 -1.653843 -4.932976 -7.395054 -1.558011 -1.759214 10.027766 -7.131855 -5.111293 -2.955933 -0.252115 0.699219 0.000000 0.000000 0.000000 6.729158 6.562114 -0.167034 -38.352604 -38.614827 -17.267729 179.920749 -79.237147 179.948527 5.602731 14.710393 0.709335 -0.052140 0.427783 -0.000000 0.000000 0.000000 0.000000 0.000000 0.000000 0.000000 7.525761 -1.674341 -1.307352 62.295729 26.939289 0.038581 -179.780972 83.414270 179.972322 -1.408861 7.269647 -0.088315 -0.114559 -0.669178 -0.000000 0.000000 0.000000 0.000000 0.000000 0.000000 0.000000 
4.150084 17.554805 3.776437 -21.982669 -87.800295 34.280041 -4.658936 -1.688213 -10.052986 -1.956084 -1.629138 -4.966415 -7.374187 -1.559501 -1.744276 9.989645 -7.113090 -4.906108 -2.932992 -0.253475 0.761428 0.000000 0.000000 0.000000 6.985664 6.555398 -0.351761 -37.416050 -40.006483 -17.573592 179.833641 -79.485734 179.946992 5.830963 14.445848 0.722776 -0.046573 0.441498 0.000000 0.000000 0.000000 0.000000 0.000000 0.000000 0.000000 7.390009 -1.826463 -1.406799 61.830634 27.193964 -0.601843 -179.736152 82.755462 179.968490 -1.687629 7.502476 -0.111086 -0.113858 -0.679505 -0.000000 0.000000 0.000000 0.000000 0.000000 0.000000 0.000000 
4.073669 17.572381 3.732004 -7.325445 -88.019972 19.411657 -5.279305 -1.581824 -10.287201 -2.095303 -1.481529 -5.009030 -7.361278 -1.431735 -1.731791 9.961141 -7.115088 -4.694603 -2.913861 -0.255138 0.826430 0.000000 0.000000 0.000000 7.253319 6.628189 -0.574775 -36.523741 -41.408580 -17.943633 179.741060 -79.741961 179.945612 6.056339 14.127061 0.731510 -0.039310 0.456498 0.000000 0.000000 0.000000 0.000000 0.000000 0.000000 0.000000 7.274876 -1.944648 -1.500052 61.331269 27.522692 -1.257039 -179.690091 82.101278 179.964857 -1.955866 7.729602 -0.134240 -0.112226 -0.690038 -0.000000 0.000000 0.000000 0.000000 0.000000 0.000000 0.000000 
